<svg t="1727186354229" class="icon" viewBox="0 0 1024 1024" version="1.1" xmlns="http://www.w3.org/2000/svg" p-id="6706" width="200" height="200"><path d="M532.859259 54.044444c-2.844444 2.844444-53.096296 6.637037-112.829629 9.481482-58.785185 1.896296-110.933333 7.585185-114.725926 11.377778-10.42963 10.42963 18.014815 37.925926 46.459259 44.562963 13.274074 3.792593 33.185185 1.896296 44.562963-3.792593 42.666667-20.859259 89.125926-26.548148 222.814815-28.444444 76.8-1.896296 88.177778-3.792593 85.333333-18.014815-1.896296-12.325926-17.066667-16.118519-85.333333-18.014815-44.562963-0.948148-84.385185 0-86.281482 2.844444zM494.933333 147.911111c-2.844444 2.844444-75.851852 5.688889-162.133333 5.688889C182.044444 152.651852 175.407407 153.6 175.407407 171.614815c0 10.42963 5.688889 20.859259 13.274074 23.703704 13.274074 4.740741 154.548148-7.585185 185.837038-16.118519 9.481481-2.844444 18.014815 10.42963 28.444444 39.822222 18.962963 57.837037 34.133333 74.903704 67.318518 74.903704 25.6 0 27.496296 2.844444 27.496297 37.925926 0 37.925926 0 37.925926-49.303704 38.874074-27.496296 0-69.214815 2.844444-91.97037 4.740741-45.511111 5.688889-60.681481-5.688889-52.148148-39.822223 2.844444-11.377778-0.948148-24.651852-9.481482-31.288888-8.533333-7.585185-15.17037-18.962963-15.17037-25.6 0-15.17037-24.651852-18.014815-33.185185-3.792593-2.844444 4.740741 1.896296 36.02963 10.429629 68.266667 9.481481 39.822222 13.274074 78.696296 9.481482 116.622222-2.844444 31.288889-7.585185 119.466667-10.42963 195.318518-3.792593 80.592593-11.377778 159.288889-20.859259 189.62963-18.962963 68.266667-25.6 112.82963-16.118519 112.82963 4.740741 0 16.118519-6.637037 26.548148-14.222223 29.392593-22.755556 52.148148-177.303704 54.044445-374.518518 0-80.592593 4.740741-134.637037 10.429629-138.42963 11.377778-7.585185 53.096296-12.325926 130.844445-16.118518 52.148148-1.896296 52.148148-1.896296 52.148148 36.029629 0 34.133333-2.844444 37.925926-33.185185 46.45926-39.822222 11.377778-51.2 21.807407-60.681482 53.096296-11.377778 38.874074-18.014815 388.740741-6.637037 388.740741 18.014815 0 28.444444-62.577778 33.185186-195.318519 4.740741-143.17037 20.859259-202.903704 54.992592-202.903704 19.911111 0 19.911111-1.896296 17.066667 287.288889-0.948148 178.251852-0.948148 188.681481 16.118518 184.888889 22.755556-3.792593 29.392593-91.022222 23.703704-302.459259-4.740741-172.562963-2.844444-180.148148 46.459259-160.237037 25.6 11.377778 27.496296 15.17037 28.444445 65.422222 0.948148 29.392593 0 68.266667-1.896297 86.281482-2.844444 37.925926-1.896296 63.525926 4.740741 156.444444 3.792593 55.940741 7.585185 66.37037 21.807408 66.37037 13.274074 0 17.066667-6.637037 15.17037-28.444444-0.948148-16.118519-1.896296-90.074074-2.844445-165.925926-0.948148-166.874074-9.481481-202.903704-50.251851-227.555555-17.066667-10.42963-37.925926-18.962963-46.45926-18.962963-13.274074 0-17.066667-8.533333-17.066666-38.874075 0-39.822222 0-39.822222 45.511111-33.185185 24.651852 3.792593 67.318519 9.481481 94.814815 12.325926 49.303704 4.740741 49.303704 4.740741 51.2 79.644445 1.896296 132.740741 14.222222 256 27.496296 292.977777 3.792593 13.274074 9.481481 34.133333 11.377778 47.407408 4.740741 31.288889 21.807407 73.007407 33.185185 79.644444 4.740741 2.844444 14.222222-0.948148 20.859259-7.585185 8.533333-10.42963 7.585185-27.496296-3.792592-73.955555-7.585185-33.185185-16.118519-74.903704-19.911112-92.918519-2.844444-18.014815-10.42963-58.785185-16.118518-90.074074-11.377778-57.837037-13.274074-187.733333-3.792593-256 7.585185-61.62963 10.42963-127.051852 4.740741-132.740741-10.42963-10.42963-36.977778 6.637037-37.925926 24.651852-1.896296 21.807407-2.844444 26.548148-11.377778 53.096296-6.637037 17.066667-16.118519 20.859259-60.681481 23.703704-30.340741 0.948148-72.059259 0.948148-94.814815-0.948148-38.874074-2.844444-40.77037-3.792593-40.77037-33.185185 0-37.925926 6.637037-45.511111 28.444444-32.237037 13.274074 8.533333 21.807407 5.688889 41.718519-14.222223 18.962963-18.962963 24.651852-34.133333 24.651852-67.318518 0-42.666667 0-42.666667 104.296296-41.718519 57.837037 0 108.088889-1.896296 110.933333-5.688888 2.844444-2.844444 0-11.377778-6.637037-19.911112-9.481481-11.377778-40.77037-14.222222-175.407407-14.222222-89.125926 0-164.977778 2.844444-168.770371 5.688889z m94.814815 47.407408c2.844444 7.585185 0 24.651852-6.637037 37.925925-11.377778 19.911111-18.962963 22.755556-66.37037 22.755556-49.303704 0-54.992593-1.896296-65.422222-24.651852-17.066667-38.874074 0-51.2 72.059259-51.2 46.459259 0 61.62963 3.792593 66.37037 15.170371z" p-id="6707" fill="#d81e06"></path></svg>